<svg version="1.1" id="Layer_1" xmlns="http://www.w3.org/2000/svg" xmlns:xlink="http://www.w3.org/1999/xlink" x="0px" y="0px"
	 width="100%" viewBox="0 0 500 500" enable-background="new 0 0 500 500" xml:space="preserve">
<path fill="#000000" opacity="1.000000" stroke="none" 
	d="
M278.000000,501.000000 
	C185.333359,501.000000 93.166710,501.000000 1.000049,501.000000 
	C1.000033,334.333405 1.000033,167.666794 1.000016,1.000139 
	C167.666565,1.000093 334.333130,1.000093 500.999756,1.000046 
	C500.999847,167.666519 500.999847,334.333038 500.999939,500.999786 
	C426.833344,501.000000 352.666656,501.000000 278.000000,501.000000 
M306.876038,437.275757 
	C321.990204,432.532990 336.445251,426.334686 349.916382,417.926300 
	C406.578094,382.559418 439.443390,331.579041 445.394531,265.253021 
	C451.237183,200.136688 428.880859,144.570389 380.794250,99.958374 
	C346.985596,68.592674 306.611847,51.813240 260.703003,48.957188 
	C242.441895,47.821136 224.076660,48.328861 205.758179,48.158939 
	C196.983963,48.077553 195.271072,49.860054 195.270386,58.663368 
	C195.266617,106.309692 195.267212,153.956009 195.267380,201.602341 
	C195.267654,279.902252 195.266373,358.202148 195.273041,436.502045 
	C195.273743,444.811981 196.959793,446.514587 205.163177,446.532990 
	C213.659500,446.552063 222.158707,446.396118 230.651764,446.563843 
	C256.239624,447.069183 281.565155,445.493896 306.876038,437.275757 
M78.999405,134.500000 
	C78.999237,235.295609 78.997734,336.091217 79.001472,436.886810 
	C79.001770,444.854370 80.651962,446.497284 88.705154,446.509003 
	C101.866867,446.528168 115.028641,446.518463 128.190384,446.512573 
	C137.486603,446.508392 138.910156,445.086121 138.910355,435.817047 
	C138.911819,365.676575 138.911545,295.536133 138.911667,225.395676 
	C138.911774,169.583206 138.916641,113.770729 138.905762,57.958260 
	C138.904297,50.496815 137.228043,48.832912 129.865540,48.829247 
	C115.870766,48.822281 101.875999,48.821239 87.881226,48.829704 
	C80.655273,48.834076 79.007378,50.434338 79.004005,57.528397 
	C78.991982,82.852264 78.999367,108.176132 78.999405,134.500000 
z"/>
<path fill="#F7F7F7" opacity="1.000000" stroke="none" 
	d="
M306.514526,437.447266 
	C281.565155,445.493896 256.239624,447.069183 230.651764,446.563843 
	C222.158707,446.396118 213.659500,446.552063 205.163177,446.532990 
	C196.959793,446.514587 195.273743,444.811981 195.273041,436.502045 
	C195.266373,358.202148 195.267654,279.902252 195.267380,201.602341 
	C195.267212,153.956009 195.266617,106.309692 195.270386,58.663368 
	C195.271072,49.860054 196.983963,48.077553 205.758179,48.158939 
	C224.076660,48.328861 242.441895,47.821136 260.703003,48.957188 
	C306.611847,51.813240 346.985596,68.592674 380.794250,99.958374 
	C428.880859,144.570389 451.237183,200.136688 445.394531,265.253021 
	C439.443390,331.579041 406.578094,382.559418 349.916382,417.926300 
	C336.445251,426.334686 321.990204,432.532990 306.514526,437.447266 
M433.087738,260.334198 
	C433.094635,252.849670 433.550873,245.334229 433.038147,237.885468 
	C428.492950,171.853104 397.621338,121.558197 341.565735,86.791046 
	C300.432739,61.279289 254.711594,58.790363 208.043610,61.558968 
	C208.043610,185.502701 208.043610,309.542999 208.043610,433.727386 
	C222.307861,433.727386 236.301102,433.958191 250.281921,433.641449 
	C258.757050,433.449432 267.300415,432.966522 275.662018,431.652802 
	C307.825348,426.599487 336.959808,414.172455 362.384125,393.783783 
	C404.800140,359.768738 428.414886,315.546997 433.087738,260.334198 
z"/>
<path fill="#FDFDFD" opacity="1.000000" stroke="none" 
	d="
M78.999405,134.000000 
	C78.999367,108.176132 78.991982,82.852264 79.004005,57.528397 
	C79.007378,50.434338 80.655273,48.834076 87.881226,48.829704 
	C101.875999,48.821239 115.870766,48.822281 129.865540,48.829247 
	C137.228043,48.832912 138.904297,50.496815 138.905762,57.958260 
	C138.916641,113.770729 138.911774,169.583206 138.911667,225.395676 
	C138.911545,295.536133 138.911819,365.676575 138.910355,435.817047 
	C138.910156,445.086121 137.486603,446.508392 128.190384,446.512573 
	C115.028641,446.518463 101.866867,446.528168 88.705154,446.509003 
	C80.651962,446.497284 79.001770,444.854370 79.001472,436.886810 
	C78.997734,336.091217 78.999237,235.295609 78.999405,134.000000 
M126.000504,363.500000 
	C126.000504,262.759125 126.000504,162.018234 126.000504,61.396828 
	C114.110634,61.396828 102.741425,61.396828 91.541122,61.396828 
	C91.541122,185.683212 91.541122,309.572083 91.541122,433.595825 
	C103.102119,433.595825 114.348587,433.595825 126.000504,433.595825 
	C126.000504,410.407166 126.000504,387.453583 126.000504,363.500000 
z"/>
<path fill="#000000" opacity="1.000000" stroke="none" 
	d="
M433.063171,260.811340 
	C428.414886,315.546997 404.800140,359.768738 362.384125,393.783783 
	C336.959808,414.172455 307.825348,426.599487 275.662018,431.652802 
	C267.300415,432.966522 258.757050,433.449432 250.281921,433.641449 
	C236.301102,433.958191 222.307861,433.727386 208.043610,433.727386 
	C208.043610,309.542999 208.043610,185.502701 208.043610,61.558968 
	C254.711594,58.790363 300.432739,61.279289 341.565735,86.791046 
	C397.621338,121.558197 428.492950,171.853104 433.038147,237.885468 
	C433.550873,245.334229 433.094635,252.849670 433.063171,260.811340 
z"/>
<path fill="#020202" opacity="1.000000" stroke="none" 
	d="
M126.000504,364.000000 
	C126.000504,387.453583 126.000504,410.407166 126.000504,433.595825 
	C114.348587,433.595825 103.102119,433.595825 91.541122,433.595825 
	C91.541122,309.572083 91.541122,185.683212 91.541122,61.396828 
	C102.741425,61.396828 114.110634,61.396828 126.000504,61.396828 
	C126.000504,162.018234 126.000504,262.759125 126.000504,364.000000 
z"/>
</svg>