<svg version="1.1" id="Layer_1" xmlns="http://www.w3.org/2000/svg" xmlns:xlink="http://www.w3.org/1999/xlink" x="0px" y="0px"
	 width="100%" viewBox="0 0 496 496" enable-background="new 0 0 496 496" xml:space="preserve">
<path fill="#000000" opacity="1.000000" stroke="none" 
	d="
M327.259583,430.423096 
	C298.890961,442.344360 269.686035,447.795837 239.311295,447.254120 
	C228.486023,447.061035 217.654419,447.234039 206.825729,447.216705 
	C196.826172,447.200714 194.739502,445.128937 194.739334,435.305939 
	C194.737854,341.845856 194.735382,248.385788 194.734482,154.925720 
	C194.734192,123.105980 194.730377,91.286247 194.743713,59.466507 
	C194.747849,49.597393 196.631042,47.688473 206.271088,47.685181 
	C220.431702,47.680344 234.604492,47.306164 248.750870,47.756294 
	C323.643982,50.139362 380.943970,83.230080 419.767609,147.332443 
	C436.141602,174.367752 444.664368,204.120773 446.413391,235.779678 
	C449.696808,295.212219 429.550476,345.907928 388.690613,388.450836 
	C371.362671,406.492584 350.534790,420.073700 327.259583,430.423096 
M375.438782,113.062309 
	C370.499207,108.847000 365.704376,104.446854 360.596008,100.447182 
	C332.882660,78.748695 301.329102,66.402725 266.461273,62.498226 
	C249.376846,60.585117 232.188248,61.442890 215.040756,61.350578 
	C208.273468,61.314144 208.270386,61.354961 208.270386,68.273087 
	C208.270432,178.405655 208.270828,288.538208 208.272690,398.670776 
	C208.272858,408.334442 208.455154,418.002441 208.210922,427.659790 
	C208.103775,431.896027 209.703079,433.143677 213.744720,433.075653 
	C225.237900,432.882233 236.736710,432.928314 248.232498,433.003235 
	C273.392426,433.167175 297.542572,428.208984 320.560760,418.203491 
	C395.062408,385.819183 440.649506,309.311401 431.917480,228.784531 
	C427.012787,183.553085 408.233887,145.344559 375.438782,113.062309 
z"/>
<path fill="#000000" opacity="1.000000" stroke="none" 
	d="
M78.657623,79.999886 
	C78.659248,71.833832 78.616806,64.167435 78.677032,56.501846 
	C78.723793,50.550129 80.743454,48.213081 86.763657,48.135651 
	C101.426460,47.947041 116.094315,47.941830 130.757614,48.099228 
	C137.118073,48.167500 139.311874,50.683266 139.321274,57.179295 
	C139.357697,82.343880 139.337509,107.508553 139.337875,132.673187 
	C139.339371,233.665054 139.341354,334.656921 139.340927,435.648804 
	C139.340881,445.346832 137.452576,447.215485 127.605545,447.226746 
	C115.106560,447.241058 102.607536,447.247925 90.108574,447.229034 
	C80.447845,447.214447 78.661903,445.451111 78.661606,435.971130 
	C78.657867,317.480713 78.658363,198.990311 78.657623,79.999886 
M125.649818,344.500092 
	C125.650352,301.670868 125.651581,258.841614 125.651230,216.012390 
	C125.650833,166.350571 125.601532,116.688614 125.731834,67.027130 
	C125.743103,62.732838 124.663078,61.068058 120.146965,61.281071 
	C112.997154,61.618301 105.819344,61.355072 98.653397,61.359428 
	C92.011215,61.363468 92.019676,61.371262 92.020210,67.968842 
	C92.029297,179.791260 92.036461,291.613678 92.042740,403.436096 
	C92.043175,411.268646 92.203041,419.106415 91.961723,426.931671 
	C91.826233,431.325226 93.091888,433.316132 97.873863,433.101776 
	C105.191589,432.773804 112.543777,432.809418 119.864685,433.104218 
	C124.534363,433.292267 125.772530,431.507141 125.741806,426.991577 
	C125.556976,399.828796 125.649605,372.664154 125.649818,344.500092 
z"/>
</svg>